<svg xmlns="http://www.w3.org/2000/svg" viewBox="0 0 1200 675" role="img" aria-labelledby="title desc">
  <title id="title">Đăng nhập và đăng ký AutoTool Pro</title><desc id="desc">Minh họa nút đăng nhập, biểu mẫu tài khoản và đăng nhập Google.</desc>
  <defs><linearGradient id="bg" x1="0" y1="0" x2="1" y2="1"><stop stop-color="#071426"/><stop offset="1" stop-color="#0b1d36"/></linearGradient><linearGradient id="brand" x1="0" y1="0" x2="1" y2="1"><stop stop-color="#2e6bff"/><stop offset="1" stop-color="#47cfff"/></linearGradient><filter id="shadow"><feDropShadow dx="0" dy="18" stdDeviation="20" flood-color="#000814" flood-opacity=".55"/></filter><style>.txt{font-family:Inter,Arial,sans-serif;fill:#f4f8ff}.muted{fill:#8fa2bd}.small{font-size:17px}.label{font-size:15px;font-weight:700}.title{font-size:27px;font-weight:800}.call{fill:#56d9ff;font:bold 18px Inter,Arial}.line{stroke:#56d9ff;stroke-width:3;fill:none}</style></defs>
  <rect width="1200" height="675" rx="30" fill="url(#bg)"/><circle cx="960" cy="90" r="230" fill="#2764ff" opacity=".10"/>
  <rect x="40" y="34" width="1120" height="72" rx="18" fill="#0c1a30" stroke="#29425f"/><rect x="62" y="49" width="42" height="42" rx="12" fill="url(#brand)"/><text x="83" y="78" text-anchor="middle" class="txt label">A</text><text x="118" y="71" class="txt" font-size="21" font-weight="800">AutoTool<tspan fill="#56d9ff">Pro</tspan></text><text x="905" y="76" class="muted small">Hướng dẫn</text><rect x="1020" y="52" width="112" height="36" rx="11" fill="url(#brand)"/><text x="1076" y="76" text-anchor="middle" class="txt label">Đăng nhập</text>
  <path d="M1060 116v38h-110" class="line"/><circle cx="930" cy="154" r="19" fill="#56d9ff"/><text x="930" y="160" text-anchor="middle" fill="#06101f" font-family="Inter,Arial" font-weight="900">1</text>
  <g filter="url(#shadow)"><rect x="288" y="132" width="624" height="500" rx="28" fill="#0b172b" stroke="#32527a"/><text x="336" y="188" class="txt title">Đăng nhập</text><rect x="336" y="218" width="528" height="58" rx="14" fill="#07101f" stroke="#29425f"/><text x="356" y="242" class="muted" font-size="13">EMAIL</text><text x="356" y="263" class="txt small">ban@example.com</text><rect x="336" y="294" width="528" height="58" rx="14" fill="#07101f" stroke="#29425f"/><text x="356" y="319" class="muted" font-size="13">MẬT KHẨU</text><text x="356" y="340" class="txt small">••••••••••</text><rect x="336" y="375" width="528" height="54" rx="14" fill="url(#brand)"/><text x="600" y="409" text-anchor="middle" class="txt" font-size="18" font-weight="800">Đăng nhập</text><text x="600" y="461" text-anchor="middle" class="muted small">Quên mật khẩu?  ·  Đăng ký mới</text><line x1="336" y1="490" x2="555" y2="490" stroke="#29425f"/><text x="600" y="496" text-anchor="middle" class="muted" font-size="14">HOẶC</text><line x1="645" y1="490" x2="864" y2="490" stroke="#29425f"/><rect x="336" y="522" width="528" height="58" rx="14" fill="#f8fbff"/><circle cx="380" cy="551" r="15" fill="#fff" stroke="#d5deea"/><text x="380" y="557" text-anchor="middle" font-family="Arial" font-weight="900" fill="#4285f4">G</text><text x="600" y="558" text-anchor="middle" fill="#132238" font-family="Inter,Arial" font-size="17" font-weight="800">Tiếp tục với Google</text></g>
  <circle cx="253" cy="462" r="19" fill="#56d9ff"/><text x="253" y="468" text-anchor="middle" fill="#06101f" font-family="Inter,Arial" font-weight="900">2</text><path d="M273 462h110" class="line"/><circle cx="947" cy="550" r="19" fill="#56d9ff"/><text x="947" y="556" text-anchor="middle" fill="#06101f" font-family="Inter,Arial" font-weight="900">3</text><path d="M927 550h-62" class="line"/>
</svg>
