<svg xmlns="http://www.w3.org/2000/svg" viewBox="0 0 1200 675" role="img" aria-labelledby="title desc">
  <title id="title">Chọn gói AutoTool Pro</title><desc id="desc">Minh họa các thẻ gói, số dư và nút mua gói.</desc>
  <defs><linearGradient id="bg" x1="0" y1="0" x2="1" y2="1"><stop stop-color="#06101f"/><stop offset="1" stop-color="#0a1c35"/></linearGradient><linearGradient id="brand"><stop stop-color="#2d69ff"/><stop offset="1" stop-color="#56d9ff"/></linearGradient><filter id="shadow"><feDropShadow dx="0" dy="16" stdDeviation="18" flood-color="#000611" flood-opacity=".5"/></filter><style>.t{font-family:Inter,Arial;fill:#f4f8ff}.m{fill:#8fa2bd}.call{fill:#56d9ff;font:bold 18px Inter,Arial}.line{stroke:#56d9ff;stroke-width:3;fill:none}</style></defs>
  <rect width="1200" height="675" rx="30" fill="url(#bg)"/><text x="62" y="75" class="t" font-size="18" font-weight="800">BẢNG GIÁ</text><text x="62" y="120" class="t" font-size="34" font-weight="850">Chọn thời hạn phù hợp</text><rect x="920" y="62" width="218" height="48" rx="24" fill="#0d1b30" stroke="#29425f"/><text x="944" y="91" class="m" font-size="14">Số dư</text><text x="1112" y="91" text-anchor="end" class="t" font-size="17" font-weight="800">350.000đ</text>
  <g transform="translate(56 160)"><g><rect width="242" height="430" rx="22" fill="#0b172b" stroke="#29425f"/><text x="24" y="48" class="t" font-size="21" font-weight="800">1 tuần</text><text x="24" y="78" class="m" font-size="14">Dùng thử toàn bộ tính năng</text><text x="24" y="137" class="t" font-size="34" font-weight="900">49.000đ</text><text x="24" y="186" class="m" font-size="14">✓ Tải từng file</text><text x="24" y="218" class="m" font-size="14">✓ Nén ZIP</text><text x="24" y="250" class="m" font-size="14">✓ Drive → Drive</text><rect x="24" y="348" width="194" height="52" rx="14" fill="#14243d" stroke="#29425f"/><text x="121" y="380" text-anchor="middle" class="t" font-size="16" font-weight="800">Mua gói</text></g><g transform="translate(266)" filter="url(#shadow)"><rect width="282" height="430" rx="22" fill="#0c1e39" stroke="#56d9ff" stroke-width="2"/><rect x="174" y="18" width="82" height="28" rx="14" fill="url(#brand)"/><text x="215" y="37" text-anchor="middle" class="t" font-size="11" font-weight="900">PHỔ BIẾN</text><text x="26" y="54" class="t" font-size="22" font-weight="800">1 năm</text><text x="26" y="84" class="m" font-size="14">Tối ưu chi phí dài hạn</text><text x="26" y="145" class="t" font-size="38" font-weight="900">499.000đ</text><text x="26" y="194" class="t" font-size="14">✓ Mở toàn bộ tính năng</text><text x="26" y="226" class="t" font-size="14">✓ Nhiều link mỗi job</text><text x="26" y="258" class="t" font-size="14">✓ Lưu kết quả 30 ngày</text><rect x="26" y="344" width="230" height="56" rx="14" fill="url(#brand)"/><text x="141" y="379" text-anchor="middle" class="t" font-size="17" font-weight="900">Mua gói</text></g><g transform="translate(572)"><rect width="242" height="430" rx="22" fill="#0b172b" stroke="#29425f"/><text x="24" y="48" class="t" font-size="21" font-weight="800">Vĩnh viễn</text><text x="24" y="78" class="m" font-size="14">Thanh toán một lần</text><text x="24" y="137" class="t" font-size="34" font-weight="900">999.000đ</text><text x="24" y="186" class="m" font-size="14">✓ Không hết hạn</text><text x="24" y="218" class="m" font-size="14">✓ Mọi chế độ đầu ra</text><text x="24" y="250" class="m" font-size="14">✓ Ưu tiên hỗ trợ</text><rect x="24" y="348" width="194" height="52" rx="14" fill="#14243d" stroke="#29425f"/><text x="121" y="380" text-anchor="middle" class="t" font-size="16" font-weight="800">Mua gói</text></g></g>
  <circle cx="1107" cy="133" r="19" fill="#56d9ff"/><text x="1107" y="139" text-anchor="middle" fill="#06101f" font-family="Inter,Arial" font-weight="900">1</text><path d="M1107 113v-10" class="line"/><circle cx="618" cy="625" r="19" fill="#56d9ff"/><text x="618" y="631" text-anchor="middle" fill="#06101f" font-family="Inter,Arial" font-weight="900">2</text><path d="M618 606v-50" class="line"/><circle cx="344" cy="138" r="19" fill="#56d9ff"/><text x="344" y="144" text-anchor="middle" fill="#06101f" font-family="Inter,Arial" font-weight="900">3</text><path d="M364 138h102" class="line"/>
</svg>
