<svg xmlns="http://www.w3.org/2000/svg" viewBox="0 0 1200 675" role="img" aria-labelledby="title desc">
  <title id="title">Nạp tiền bằng QR</title><desc id="desc">Minh họa chọn số tiền, quét QR và giữ đúng mã nạp.</desc>
  <defs><linearGradient id="bg" x1="0" y1="0" x2="1" y2="1"><stop stop-color="#06101f"/><stop offset="1" stop-color="#0b203b"/></linearGradient><linearGradient id="brand"><stop stop-color="#2d69ff"/><stop offset="1" stop-color="#56d9ff"/></linearGradient><style>.t{font-family:Inter,Arial;fill:#f4f8ff}.m{fill:#8fa2bd}.line{stroke:#56d9ff;stroke-width:3;fill:none}</style></defs>
  <rect width="1200" height="675" rx="30" fill="url(#bg)"/><text x="58" y="72" class="t" font-size="18" font-weight="850">NẠP TIỀN</text><text x="58" y="112" class="t" font-size="32" font-weight="850">Quét QR · cộng số dư tự động</text>
  <rect x="56" y="148" width="520" height="468" rx="24" fill="#0b172b" stroke="#29425f"/><text x="86" y="192" class="t" font-size="20" font-weight="800">1. Chọn số tiền</text><g transform="translate(86 220)"><rect width="132" height="46" rx="12" fill="#132640" stroke="#33587f"/><text x="66" y="29" text-anchor="middle" class="t" font-size="15" font-weight="800">50.000đ</text><rect x="145" width="132" height="46" rx="12" fill="url(#brand)"/><text x="211" y="29" text-anchor="middle" class="t" font-size="15" font-weight="800">100.000đ</text><rect x="290" width="132" height="46" rx="12" fill="#132640" stroke="#33587f"/><text x="356" y="29" text-anchor="middle" class="t" font-size="15" font-weight="800">200.000đ</text></g><text x="86" y="310" class="m" font-size="13">HOẶC TỰ NHẬP</text><rect x="86" y="329" width="430" height="58" rx="14" fill="#07101f" stroke="#29425f"/><text x="106" y="365" class="t" font-size="17">100.000</text><text x="86" y="430" class="m" font-size="13">MÃ NẠP RIÊNG CỦA BẠN</text><rect x="86" y="450" width="430" height="70" rx="14" fill="#07101f" stroke="#56d9ff"/><text x="106" y="478" class="m" font-size="12">NỘI DUNG CHUYỂN KHOẢN</text><text x="106" y="506" class="t" font-size="22" font-weight="900">ATP9K2M7</text><rect x="404" y="468" width="88" height="36" rx="10" fill="#142a49"/><text x="448" y="491" text-anchor="middle" fill="#56d9ff" font-family="Inter,Arial" font-size="13" font-weight="800">COPY</text><rect x="86" y="545" width="430" height="48" rx="14" fill="url(#brand)"/><text x="301" y="575" text-anchor="middle" class="t" font-size="16" font-weight="850">Tạo QR nạp tiền</text>
  <rect x="606" y="148" width="538" height="468" rx="24" fill="#0b172b" stroke="#29425f"/><text x="636" y="192" class="t" font-size="20" font-weight="800">2. Quét mã bằng app ngân hàng</text><rect x="716" y="220" width="318" height="318" rx="20" fill="#fff"/><g fill="#07101f"><path d="M744 248h82v82h-82zm18 18v46h46v-46zM924 248h82v82h-82zm18 18v46h46v-46zM744 428h82v82h-82zm18 18v46h46v-46z"/><path d="M854 250h26v28h-26zm38 0h19v52h-19zm-37 66h54v22h-54zm0 39h24v24h-24zm40 0h31v27h-31zm-40 43h62v20h-62zm85 0h53v22h-53zm-87 40h26v28h-26zm43 0h24v68h-24zm44 0h53v69h-22v-38h-31z"/></g><text x="875" y="574" text-anchor="middle" class="m" font-size="13">Số tiền: 100.000đ · Nội dung: ATP9K2M7</text>
  <circle cx="286" cy="204" r="19" fill="#56d9ff"/><text x="286" y="210" text-anchor="middle" fill="#06101f" font-family="Inter,Arial" font-weight="900">1</text><path d="M286 223v18" class="line"/><circle cx="552" cy="484" r="19" fill="#56d9ff"/><text x="552" y="490" text-anchor="middle" fill="#06101f" font-family="Inter,Arial" font-weight="900">2</text><path d="M533 484h-24" class="line"/><circle cx="1073" cy="368" r="19" fill="#56d9ff"/><text x="1073" y="374" text-anchor="middle" fill="#06101f" font-family="Inter,Arial" font-weight="900">3</text><path d="M1054 368h-24" class="line"/>
</svg>
