<svg xmlns="http://www.w3.org/2000/svg" viewBox="0 0 1200 675" role="img" aria-labelledby="title desc">
  <title id="title">Kết nối Google Drive nguồn</title><desc id="desc">Minh họa trạng thái sẵn sàng và nút kết nối Google.</desc>
  <defs><linearGradient id="bg" x1="0" y1="0" x2="1" y2="1"><stop stop-color="#06101f"/><stop offset="1" stop-color="#0b1c35"/></linearGradient><linearGradient id="brand"><stop stop-color="#2d69ff"/><stop offset="1" stop-color="#56d9ff"/></linearGradient><style>.t{font-family:Inter,Arial;fill:#f4f8ff}.m{fill:#8fa2bd}.line{stroke:#56d9ff;stroke-width:3;fill:none}</style></defs>
  <rect width="1200" height="675" rx="30" fill="url(#bg)"/><text x="56" y="70" class="t" font-size="17" font-weight="850">WORKSPACE</text><text x="56" y="112" class="t" font-size="33" font-weight="850">Kiểm tra sẵn sàng trước khi chạy</text>
  <rect x="56" y="144" width="1088" height="116" rx="22" fill="#0a1a31" stroke="#29425f"/><circle cx="112" cy="202" r="38" fill="#0c2c39" stroke="#36d99d"/><text x="112" y="210" text-anchor="middle" fill="#36d99d" font-family="Inter,Arial" font-size="21" font-weight="900">67%</text><g transform="translate(184 174)"><rect width="242" height="59" rx="14" fill="#0c2131" stroke="#36d99d"/><circle cx="32" cy="30" r="13" fill="#143f36"/><text x="32" y="35" text-anchor="middle" fill="#36d99d" font-family="Arial" font-weight="900">✓</text><text x="57" y="26" class="t" font-size="14" font-weight="800">Đăng nhập</text><text x="57" y="45" class="m" font-size="11">ban@example.com</text><rect x="258" width="242" height="59" rx="14" fill="#0c2131" stroke="#36d99d"/><circle cx="290" cy="30" r="13" fill="#143f36"/><text x="290" y="35" text-anchor="middle" fill="#36d99d" font-family="Arial" font-weight="900">✓</text><text x="315" y="26" class="t" font-size="14" font-weight="800">Gói sử dụng</text><text x="315" y="45" class="m" font-size="11">Gói 1 năm</text><rect x="516" width="242" height="59" rx="14" fill="#251f1b" stroke="#f6c65b"/><circle cx="548" cy="30" r="13" fill="#403619"/><text x="548" y="35" text-anchor="middle" fill="#f6c65b" font-family="Arial" font-weight="900">3</text><text x="573" y="26" class="t" font-size="14" font-weight="800">Drive nguồn</text><text x="573" y="45" class="m" font-size="11">Chưa kết nối</text></g>
  <rect x="156" y="304" width="888" height="294" rx="26" fill="#0b172b" stroke="#315277"/><rect x="190" y="338" width="50" height="50" rx="14" fill="#122e50"/><text x="215" y="370" text-anchor="middle" fill="#56d9ff" font-family="Inter,Arial" font-size="20" font-weight="900">G</text><text x="260" y="355" fill="#56d9ff" font-family="Inter,Arial" font-size="12" font-weight="900">BƯỚC 1</text><text x="260" y="385" class="t" font-size="23" font-weight="850">Kết nối Drive nguồn</text><text x="190" y="431" class="m" font-size="15">Tài khoản này cần có quyền xem các file hoặc thư mục trong danh sách.</text><rect x="190" y="466" width="820" height="92" rx="16" fill="#0b2230" stroke="#36d99d" stroke-opacity=".35"/><text x="216" y="495" class="m" font-size="12">TÀI KHOẢN NGUỒN</text><text x="216" y="528" class="t" font-size="18" font-weight="800">Chưa kết nối</text><rect x="793" y="486" width="190" height="52" rx="14" fill="url(#brand)"/><text x="888" y="518" text-anchor="middle" class="t" font-size="16" font-weight="850">Kết nối Google</text>
  <circle cx="946" cy="281" r="20" fill="#56d9ff"/><text x="946" y="288" text-anchor="middle" fill="#06101f" font-family="Inter,Arial" font-weight="900">1</text><path d="M946 301v184" class="line"/><circle cx="1072" cy="510" r="20" fill="#56d9ff"/><text x="1072" y="517" text-anchor="middle" fill="#06101f" font-family="Inter,Arial" font-weight="900">2</text><path d="M1052 510h-67" class="line"/><circle cx="537" cy="632" r="20" fill="#56d9ff"/><text x="537" y="639" text-anchor="middle" fill="#06101f" font-family="Inter,Arial" font-weight="900">3</text><path d="M537 612v-53" class="line"/>
</svg>
