<svg xmlns="http://www.w3.org/2000/svg" viewBox="0 0 1200 675" role="img" aria-labelledby="title desc">
  <title id="title">Quét cây thư mục Drive</title><desc id="desc">Minh họa link folder, nút quét và cây file có ô chọn.</desc>
  <defs><linearGradient id="bg" x1="0" y1="0" x2="1" y2="1"><stop stop-color="#020813"/><stop offset="1" stop-color="#07172d"/></linearGradient><linearGradient id="brand"><stop stop-color="#2d69ff"/><stop offset="1" stop-color="#56d9ff"/></linearGradient><filter id="shadow"><feDropShadow dx="0" dy="22" stdDeviation="24" flood-color="#000" flood-opacity=".58"/></filter><style>.t{font-family:Inter,Arial;fill:#f4f8ff}.m{fill:#8fa2bd}.line{stroke:#56d9ff;stroke-width:3;fill:none}</style></defs>
  <rect width="1200" height="675" rx="30" fill="url(#bg)"/><g filter="url(#shadow)"><rect x="146" y="42" width="908" height="592" rx="28" fill="#0b172b" stroke="#315277"/><text x="184" y="94" class="t" font-size="25" font-weight="850">Quét cây thư mục Drive</text><text x="1014" y="94" text-anchor="end" class="m" font-size="22">×</text><text x="184" y="138" class="m" font-size="13">LINK THƯ MỤC</text><rect x="184" y="156" width="642" height="54" rx="14" fill="#050c18" stroke="#29425f"/><text x="204" y="189" fill="#c7d7ed" font-family="ui-monospace,Consolas" font-size="14">https://drive.google.com/drive/folders/1ABC...</text><rect x="842" y="156" width="174" height="54" rx="14" fill="url(#brand)"/><text x="929" y="189" text-anchor="middle" class="t" font-size="15" font-weight="900">Quét ngay</text><text x="184" y="242" fill="#56d9ff" font-family="Inter,Arial" font-size="14" font-weight="850">CÂY THƯ MỤC &amp; FILE</text><rect x="806" y="222" width="100" height="34" rx="10" fill="#14243d"/><text x="856" y="244" text-anchor="middle" class="t" font-size="11" font-weight="800">Chọn tất cả</text><rect x="916" y="222" width="100" height="34" rx="10" fill="#14243d"/><text x="966" y="244" text-anchor="middle" class="t" font-size="11" font-weight="800">Bỏ chọn</text><rect x="184" y="272" width="832" height="250" rx="16" fill="#050c18" stroke="#29425f"/>
  <g font-family="Inter,Arial" font-size="15"><text x="214" y="309" fill="#56d9ff">▣  📂 Khóa học Marketing</text><rect x="242" y="329" width="17" height="17" rx="4" fill="#2d69ff"/><text x="250" y="343" text-anchor="middle" fill="#fff" font-size="12">✓</text><text x="274" y="343" class="t">📄 Bài 01 - Tổng quan.mp4</text><text x="920" y="343" text-anchor="end" class="m" font-size="12">420 MB</text><rect x="242" y="367" width="17" height="17" rx="4" fill="#2d69ff"/><text x="250" y="381" text-anchor="middle" fill="#fff" font-size="12">✓</text><text x="274" y="381" class="t">📄 Bài 02 - Chiến lược.mp4</text><text x="920" y="381" text-anchor="end" class="m" font-size="12">685 MB</text><text x="244" y="421" fill="#56d9ff">▣  📂 Tài liệu</text><rect x="272" y="442" width="17" height="17" rx="4" fill="none" stroke="#63758e"/><text x="304" y="456" class="m">📄 Checklist.pdf</text><text x="920" y="456" text-anchor="end" class="m" font-size="12">12 MB</text><rect x="272" y="480" width="17" height="17" rx="4" fill="#2d69ff"/><text x="280" y="494" text-anchor="middle" fill="#fff" font-size="12">✓</text><text x="304" y="494" class="t">📄 Template.xlsx</text><text x="920" y="494" text-anchor="end" class="m" font-size="12">4 MB</text></g><rect x="614" y="548" width="402" height="56" rx="14" fill="url(#brand)"/><text x="815" y="583" text-anchor="middle" class="t" font-size="16" font-weight="900">Khởi chạy với 3 file đã chọn</text></g>
  <circle cx="1055" cy="184" r="20" fill="#56d9ff"/><text x="1055" y="191" text-anchor="middle" fill="#06101f" font-family="Inter,Arial" font-weight="900">1</text><path d="M1035 184h-20" class="line"/><circle cx="146" cy="370" r="20" fill="#56d9ff"/><text x="146" y="377" text-anchor="middle" fill="#06101f" font-family="Inter,Arial" font-weight="900">2</text><path d="M166 370h75" class="line"/><circle cx="1082" cy="576" r="20" fill="#56d9ff"/><text x="1082" y="583" text-anchor="middle" fill="#06101f" font-family="Inter,Arial" font-weight="900">3</text><path d="M1062 576h-47" class="line"/>
</svg>
