<svg xmlns="http://www.w3.org/2000/svg" viewBox="0 0 1200 675" role="img" aria-labelledby="title desc">
  <title id="title">Theo dõi tiến trình job</title><desc id="desc">Minh họa vòng phần trăm, bốn mốc, ETA và nút tải kết quả.</desc>
  <defs><linearGradient id="bg" x1="0" y1="0" x2="1" y2="1"><stop stop-color="#06101f"/><stop offset="1" stop-color="#0b1e37"/></linearGradient><linearGradient id="brand"><stop stop-color="#2d69ff"/><stop offset="1" stop-color="#56d9ff"/></linearGradient><style>.t{font-family:Inter,Arial;fill:#f4f8ff}.m{fill:#8fa2bd}.line{stroke:#56d9ff;stroke-width:3;fill:none}</style></defs>
  <rect width="1200" height="675" rx="30" fill="url(#bg)"/><rect x="58" y="50" width="1084" height="575" rx="26" fill="#0b172b" stroke="#315277"/><g transform="translate(102 92)"><circle cx="78" cy="78" r="66" fill="none" stroke="#172941" stroke-width="13"/><path d="M78 12a66 66 0 1 1-56 101" fill="none" stroke="url(#brand)" stroke-width="13" stroke-linecap="round"/><text x="78" y="82" text-anchor="middle" class="t" font-size="26" font-weight="900">72%</text><text x="78" y="104" text-anchor="middle" class="m" font-size="10">TIẾN ĐỘ</text></g><text x="292" y="112" fill="#56d9ff" font-family="Inter,Arial" font-size="11" font-weight="900">TIẾN TRÌNH TRỰC TIẾP</text><text x="292" y="146" class="t" font-size="26" font-weight="850">Job hiện tại</text><text x="292" y="176" class="m" font-size="14">running · Đang chuẩn bị liên kết tải</text><rect x="292" y="198" width="150" height="34" rx="17" fill="#12223a"/><text x="367" y="220" text-anchor="middle" class="m" font-size="11">Đã chạy: 02m 14s</text><rect x="452" y="198" width="174" height="34" rx="17" fill="#12223a"/><text x="539" y="220" text-anchor="middle" class="m" font-size="11">Còn khoảng: 52s</text><rect x="904" y="104" width="192" height="104" rx="16" fill="#10243a" stroke="#56d9ff" stroke-opacity=".3"/><circle cx="930" cy="132" r="7" fill="#56d9ff"/><text x="930" y="137" text-anchor="middle" fill="#56d9ff" font-size="8">•</text><text x="928" y="164" class="t" font-size="14" font-weight="800">Đang xử lý</text><text x="928" y="187" class="m" font-size="11">Cập nhật tự động</text><line x1="102" y1="272" x2="1096" y2="272" stroke="#29425f"/>
  <g transform="translate(126 309)"><g><circle cx="44" cy="30" r="23" fill="#11362f" stroke="#36d99d"/><text x="44" y="36" text-anchor="middle" fill="#36d99d" font-family="Arial" font-weight="900">✓</text><text x="44" y="74" text-anchor="middle" fill="#36d99d" font-family="Inter,Arial" font-size="13" font-weight="800">Đã nhận</text><text x="44" y="95" text-anchor="middle" class="m" font-size="10">Kiểm tra đầu vào</text></g><line x1="92" y1="30" x2="257" y2="30" stroke="#36d99d" stroke-width="3"/><g transform="translate(266)"><circle cx="44" cy="30" r="23" fill="#11362f" stroke="#36d99d"/><text x="44" y="36" text-anchor="middle" fill="#36d99d" font-family="Arial" font-weight="900">✓</text><text x="44" y="74" text-anchor="middle" fill="#36d99d" font-family="Inter,Arial" font-size="13" font-weight="800">Bóc link</text><text x="44" y="95" text-anchor="middle" class="m" font-size="10">Xác thực nguồn</text></g><line x1="358" y1="30" x2="523" y2="30" stroke="#56d9ff" stroke-width="3"/><g transform="translate(532)"><circle cx="44" cy="30" r="23" fill="#102d42" stroke="#56d9ff"/><text x="44" y="36" text-anchor="middle" fill="#56d9ff" font-family="Arial" font-weight="900">3</text><text x="44" y="74" text-anchor="middle" fill="#56d9ff" font-family="Inter,Arial" font-size="13" font-weight="800">Chuẩn bị</text><text x="44" y="95" text-anchor="middle" class="m" font-size="10">Tạo đầu ra</text></g><line x1="624" y1="30" x2="789" y2="30" stroke="#29425f" stroke-width="3"/><g transform="translate(798)"><circle cx="44" cy="30" r="23" fill="#111d30" stroke="#29425f"/><text x="44" y="36" text-anchor="middle" class="m" font-family="Arial" font-weight="900">4</text><text x="44" y="74" text-anchor="middle" class="m" font-family="Inter,Arial" font-size="13" font-weight="800">Sẵn sàng</text><text x="44" y="95" text-anchor="middle" class="m" font-size="10">Nhận kết quả</text></g></g>
  <rect x="102" y="451" width="994" height="8" rx="4" fill="#14243d"/><rect x="102" y="451" width="716" height="8" rx="4" fill="url(#brand)"/><rect x="102" y="490" width="994" height="86" rx="16" fill="#0d2928" stroke="#36d99d" stroke-opacity=".36"/><circle cx="140" cy="533" r="18" fill="#143d34"/><text x="140" y="540" text-anchor="middle" fill="#36d99d" font-family="Arial" font-weight="900">✓</text><text x="174" y="521" class="t" font-size="15" font-weight="800">48 file đã sẵn sàng</text><text x="174" y="548" class="m" font-size="12">Khi đạt 100%, nút nhận kết quả sẽ xuất hiện tại đây.</text><rect x="850" y="507" width="216" height="52" rx="14" fill="url(#brand)"/><text x="958" y="539" text-anchor="middle" class="t" font-size="15" font-weight="900">Tải kết quả</text>
  <circle cx="242" cy="91" r="20" fill="#56d9ff"/><text x="242" y="98" text-anchor="middle" fill="#06101f" font-family="Inter,Arial" font-weight="900">1</text><path d="M222 91h-38" class="line"/><circle cx="665" cy="338" r="20" fill="#56d9ff"/><text x="665" y="345" text-anchor="middle" fill="#06101f" font-family="Inter,Arial" font-weight="900">2</text><path d="M645 338h-43" class="line"/><circle cx="1117" cy="533" r="20" fill="#56d9ff"/><text x="1117" y="540" text-anchor="middle" fill="#06101f" font-family="Inter,Arial" font-weight="900">3</text><path d="M1097 533h-31" class="line"/>
</svg>
