<svg xmlns="http://www.w3.org/2000/svg" viewBox="0 0 1200 675" role="img" aria-labelledby="title desc">
  <title id="title">Lịch sử job</title><desc id="desc">Minh họa ô tìm kiếm, bộ lọc và các nút mở kết quả hoặc dùng lại link.</desc>
  <defs><linearGradient id="bg" x1="0" y1="0" x2="1" y2="1"><stop stop-color="#06101f"/><stop offset="1" stop-color="#0b1d36"/></linearGradient><linearGradient id="brand"><stop stop-color="#2d69ff"/><stop offset="1" stop-color="#56d9ff"/></linearGradient><style>.t{font-family:Inter,Arial;fill:#f4f8ff}.m{fill:#8fa2bd}.line{stroke:#56d9ff;stroke-width:3;fill:none}</style></defs>
  <rect width="1200" height="675" rx="30" fill="url(#bg)"/><text x="58" y="72" fill="#56d9ff" font-family="Inter,Arial" font-size="13" font-weight="900">LỊCH SỬ</text><text x="58" y="116" class="t" font-size="34" font-weight="850">Các job gần đây</text><rect x="1000" y="70" width="140" height="44" rx="12" fill="#14243d" stroke="#29425f"/><text x="1070" y="98" text-anchor="middle" class="t" font-size="13" font-weight="800">↻ Tải lại</text>
  <rect x="58" y="148" width="1082" height="72" rx="18" fill="#0b172b" stroke="#29425f"/><rect x="76" y="164" width="430" height="40" rx="12" fill="#07101f"/><text x="98" y="190" class="m" font-size="14">⌕  Tìm theo tên, trạng thái...</text><g transform="translate(690 164)"><rect width="86" height="40" rx="11" fill="#16315c" stroke="#56d9ff" stroke-opacity=".3"/><text x="43" y="25" text-anchor="middle" class="t" font-size="12" font-weight="800">Tất cả</text><rect x="94" width="110" height="40" rx="11" fill="#101f35"/><text x="149" y="25" text-anchor="middle" class="m" font-size="12">Đang chạy</text><rect x="212" width="106" height="40" rx="11" fill="#101f35"/><text x="265" y="25" text-anchor="middle" class="m" font-size="12">Hoàn tất</text><rect x="326" width="98" height="40" rx="11" fill="#101f35"/><text x="375" y="25" text-anchor="middle" class="m" font-size="12">Có lỗi</text></g>
  <g transform="translate(58 242)"><rect width="1082" height="145" rx="18" fill="#0b172b" stroke="#29425f"/><text x="24" y="35" class="t" font-size="17" font-weight="850">khoa_hoc_marketing</text><text x="24" y="62" class="m" font-size="12">Đã chuẩn bị 48 liên kết tải · 11/07/2026 08:30</text><rect x="840" y="20" width="202" height="34" rx="17" fill="#11352f"/><text x="941" y="42" text-anchor="middle" fill="#36d99d" font-family="Inter,Arial" font-size="12" font-weight="800">Hoàn tất · 100%</text><rect x="24" y="88" width="82" height="30" rx="15" fill="#13243d"/><text x="65" y="108" text-anchor="middle" class="m" font-size="11">ZIP</text><rect x="118" y="88" width="102" height="30" rx="15" fill="#13243d"/><text x="169" y="108" text-anchor="middle" class="m" font-size="11">48 kết quả</text><rect x="818" y="80" width="132" height="42" rx="12" fill="url(#brand)"/><text x="884" y="106" text-anchor="middle" class="t" font-size="12" font-weight="850">Mở kết quả</text><rect x="960" y="80" width="92" height="42" rx="12" fill="#14243d"/><text x="1006" y="106" text-anchor="middle" class="t" font-size="12" font-weight="800">Chi tiết</text></g>
  <g transform="translate(58 405)"><rect width="1082" height="145" rx="18" fill="#0b172b" stroke="#29425f"/><text x="24" y="35" class="t" font-size="17" font-weight="850">tai_lieu_thang_7</text><text x="24" y="62" class="m" font-size="12">Không tìm thấy quyền xem file · 11/07/2026 07:18</text><rect x="880" y="20" width="162" height="34" rx="17" fill="#351c25"/><text x="961" y="42" text-anchor="middle" fill="#ff6f86" font-family="Inter,Arial" font-size="12" font-weight="800">Có lỗi · 26%</text><rect x="24" y="88" width="92" height="30" rx="15" fill="#13243d"/><text x="70" y="108" text-anchor="middle" class="m" font-size="11">Từng file</text><rect x="808" y="80" width="142" height="42" rx="12" fill="#14243d" stroke="#29425f"/><text x="879" y="106" text-anchor="middle" class="t" font-size="12" font-weight="850">Dùng lại link</text><rect x="960" y="80" width="92" height="42" rx="12" fill="#14243d"/><text x="1006" y="106" text-anchor="middle" class="t" font-size="12" font-weight="800">Chi tiết</text></g>
  <circle cx="520" cy="185" r="20" fill="#56d9ff"/><text x="520" y="192" text-anchor="middle" fill="#06101f" font-family="Inter,Arial" font-weight="900">1</text><path d="M500 185h-28" class="line"/><circle cx="1110" cy="378" r="20" fill="#56d9ff"/><text x="1110" y="385" text-anchor="middle" fill="#06101f" font-family="Inter,Arial" font-weight="900">2</text><path d="M1090 378h-42" class="line"/><circle cx="782" cy="507" r="20" fill="#56d9ff"/><text x="782" y="514" text-anchor="middle" fill="#06101f" font-family="Inter,Arial" font-weight="900">3</text><path d="M802 507h44" class="line"/>
</svg>
