<svg xmlns="http://www.w3.org/2000/svg" viewBox="0 0 1200 675" role="img" aria-labelledby="title desc">
  <title id="title">Thông báo và cài đặt tài khoản</title><desc id="desc">Minh họa chuông thông báo, bật thông báo trình duyệt, Telegram, giao diện và mật khẩu.</desc>
  <defs><linearGradient id="bg" x1="0" y1="0" x2="1" y2="1"><stop stop-color="#06101f"/><stop offset="1" stop-color="#0b1d36"/></linearGradient><linearGradient id="brand"><stop stop-color="#2d69ff"/><stop offset="1" stop-color="#56d9ff"/></linearGradient><filter id="shadow"><feDropShadow dx="0" dy="20" stdDeviation="22" flood-color="#000611" flood-opacity=".6"/></filter><style>.t{font-family:Inter,Arial;fill:#f4f8ff}.m{fill:#8fa2bd}.line{stroke:#56d9ff;stroke-width:3;fill:none}</style></defs>
  <rect width="1200" height="675" rx="30" fill="url(#bg)"/><rect x="38" y="34" width="1124" height="74" rx="18" fill="#0c1a30" stroke="#29425f"/><rect x="60" y="50" width="42" height="42" rx="12" fill="url(#brand)"/><text x="81" y="78" text-anchor="middle" class="t" font-size="16" font-weight="900">A</text><text x="116" y="77" class="t" font-size="20" font-weight="850">AutoTool<tspan fill="#56d9ff">Pro</tspan></text><rect x="894" y="52" width="38" height="38" rx="11" fill="#14243d" stroke="#29425f"/><circle cx="913" cy="71" r="8" fill="none" stroke="#8fa2bd" stroke-width="2"/><circle cx="929" cy="52" r="10" fill="#ff5375"/><text x="929" y="56" text-anchor="middle" fill="#fff" font-family="Arial" font-size="9" font-weight="900">3</text><rect x="940" y="52" width="38" height="38" rx="11" fill="#14243d"/><text x="959" y="77" text-anchor="middle" class="m" font-size="17">☾</text><rect x="986" y="52" width="38" height="38" rx="11" fill="#14243d"/><text x="1005" y="77" text-anchor="middle" fill="#36d99d" font-size="17">✦</text><rect x="1032" y="52" width="38" height="38" rx="11" fill="#14243d"/><text x="1051" y="77" text-anchor="middle" class="m" font-size="17">⚙</text><rect x="1078" y="52" width="38" height="38" rx="11" fill="#14243d"/><text x="1097" y="77" text-anchor="middle" class="m" font-size="17">↗</text>
  <g filter="url(#shadow)"><rect x="638" y="126" width="486" height="492" rx="24" fill="#08162a" stroke="#315277"/><text x="672" y="164" fill="#56d9ff" font-family="Inter,Arial" font-size="10" font-weight="900">CẬP NHẬT TỨC THỜI</text><text x="672" y="194" class="t" font-size="23" font-weight="850">Thông báo</text><text x="1086" y="184" text-anchor="end" fill="#56d9ff" font-family="Inter,Arial" font-size="11" font-weight="800">Đã đọc hết</text><line x1="638" y1="214" x2="1124" y2="214" stroke="#29425f"/><rect x="656" y="232" width="450" height="78" rx="16" fill="#0d2934" stroke="#56d9ff" stroke-opacity=".28"/><text x="676" y="260" class="t" font-size="13" font-weight="800">Nhận báo ngay cả khi chuyển tab</text><text x="676" y="282" class="m" font-size="11">Bật thông báo trình duyệt cho job và giao dịch.</text><rect x="1028" y="249" width="58" height="36" rx="10" fill="#142d4e"/><text x="1057" y="272" text-anchor="middle" fill="#56d9ff" font-family="Inter,Arial" font-size="11" font-weight="850">Bật</text>
  <g transform="translate(656 328)"><rect width="450" height="92" rx="14" fill="#0d2038"/><rect x="14" y="15" width="34" height="34" rx="10" fill="#123f35"/><text x="31" y="38" text-anchor="middle" fill="#36d99d" font-family="Arial" font-weight="900">✓</text><text x="62" y="29" class="t" font-size="13" font-weight="800">Job đã hoàn tất</text><text x="62" y="50" class="m" font-size="11">khoa_hoc_marketing đã sẵn sàng.</text><text x="62" y="72" fill="#61748f" font-family="Inter,Arial" font-size="9">vừa xong</text><circle cx="427" cy="24" r="5" fill="#56d9ff"/><rect y="101" width="450" height="92" rx="14" fill="#0a192d"/><rect x="14" y="116" width="34" height="34" rx="10" fill="#382f16"/><text x="31" y="139" text-anchor="middle" fill="#f6c65b" font-family="Arial" font-weight="900">△</text><text x="62" y="130" class="t" font-size="13" font-weight="800">Gói sắp hết hạn</text><text x="62" y="151" class="m" font-size="11">Gói hiện tại còn khoảng 3 ngày.</text><text x="62" y="173" fill="#61748f" font-family="Inter,Arial" font-size="9">2 giờ trước</text><circle cx="427" cy="125" r="5" fill="#56d9ff"/><rect y="202" width="450" height="92" rx="14" fill="#0a192d"/><rect x="14" y="217" width="34" height="34" rx="10" fill="#112e4a"/><text x="31" y="240" text-anchor="middle" fill="#56d9ff" font-family="Arial" font-weight="900">i</text><text x="62" y="231" class="t" font-size="13" font-weight="800">Số dư đã được cập nhật</text><text x="62" y="252" class="m" font-size="11">Tài khoản vừa tăng 100.000đ.</text><text x="62" y="274" fill="#61748f" font-family="Inter,Arial" font-size="9">hôm qua</text></g></g>
  <text x="74" y="178" class="t" font-size="28" font-weight="850">Mọi cập nhật quan trọng</text><text x="74" y="214" class="m" font-size="15">được gom lại ở góc trên bên phải.</text><rect x="74" y="258" width="480" height="74" rx="17" fill="#0b172b" stroke="#29425f"/><text x="98" y="287" class="t" font-size="14" font-weight="800">✦  Telegram</text><text x="98" y="312" class="m" font-size="12">Nhập Chat ID để nhận tin từ bot.</text><rect x="74" y="348" width="480" height="74" rx="17" fill="#0b172b" stroke="#29425f"/><text x="98" y="377" class="t" font-size="14" font-weight="800">☾  Giao diện sáng / tối</text><text x="98" y="402" class="m" font-size="12">Lưu tự động theo thiết bị.</text><rect x="74" y="438" width="480" height="74" rx="17" fill="#0b172b" stroke="#29425f"/><text x="98" y="467" class="t" font-size="14" font-weight="800">⚙  Đổi mật khẩu</text><text x="98" y="492" class="m" font-size="12">Yêu cầu mật khẩu cũ và mật khẩu mới.</text>
  <circle cx="872" cy="96" r="20" fill="#56d9ff"/><text x="872" y="103" text-anchor="middle" fill="#06101f" font-family="Inter,Arial" font-weight="900">1</text><path d="M892 96l18-15" class="line"/><circle cx="1146" cy="270" r="20" fill="#56d9ff"/><text x="1146" y="277" text-anchor="middle" fill="#06101f" font-family="Inter,Arial" font-weight="900">2</text><path d="M1126 270h-40" class="line"/><circle cx="584" cy="385" r="20" fill="#56d9ff"/><text x="584" y="392" text-anchor="middle" fill="#06101f" font-family="Inter,Arial" font-weight="900">3</text><path d="M564 385h-72" class="line"/>
</svg>
