<svg xmlns="http://www.w3.org/2000/svg" viewBox="0 0 1200 675" role="img" aria-labelledby="title desc">
  <title id="title">Tổng quan quản trị</title><desc id="desc">Minh họa các chỉ số admin, ô tìm kiếm và bảng người dùng.</desc>
  <defs><linearGradient id="bg" x1="0" y1="0" x2="1" y2="1"><stop stop-color="#06101f"/><stop offset="1" stop-color="#0b1e37"/></linearGradient><linearGradient id="brand"><stop stop-color="#2d69ff"/><stop offset="1" stop-color="#56d9ff"/></linearGradient><style>.t{font-family:Inter,Arial;fill:#f4f8ff}.m{fill:#8fa2bd}.line{stroke:#56d9ff;stroke-width:3;fill:none}</style></defs>
  <rect width="1200" height="675" rx="30" fill="url(#bg)"/><text x="55" y="68" fill="#56d9ff" font-family="Inter,Arial" font-size="13" font-weight="900">GOD ADMIN</text><text x="55" y="110" class="t" font-size="34" font-weight="850">Trung tâm điều hành</text><rect x="1024" y="65" width="122" height="44" rx="12" fill="#14243d"/><text x="1085" y="93" text-anchor="middle" class="t" font-size="13" font-weight="800">Tải lại</text>
  <g transform="translate(55 144)"><g><rect width="200" height="100" rx="18" fill="#0b172b" stroke="#29425f"/><text x="18" y="29" class="m" font-size="11">USERS</text><text x="18" y="70" class="t" font-size="31" font-weight="900">248</text></g><g transform="translate(218)"><rect width="200" height="100" rx="18" fill="#0b172b" stroke="#29425f"/><text x="18" y="29" class="m" font-size="11">CÓ GÓI</text><text x="18" y="70" class="t" font-size="31" font-weight="900">167</text></g><g transform="translate(436)"><rect width="200" height="100" rx="18" fill="#0b172b" stroke="#29425f"/><text x="18" y="29" class="m" font-size="11">JOBS</text><text x="18" y="70" class="t" font-size="31" font-weight="900">1.284</text></g><g transform="translate(654)"><rect width="200" height="100" rx="18" fill="#0b172b" stroke="#29425f"/><text x="18" y="29" class="m" font-size="11">ĐANG CHẠY</text><text x="18" y="70" fill="#56d9ff" font-family="Inter,Arial" font-size="31" font-weight="900">7</text></g><g transform="translate(872)"><rect width="218" height="100" rx="18" fill="#0b172b" stroke="#29425f"/><text x="18" y="29" class="m" font-size="11">NẠP CHỜ</text><text x="18" y="70" fill="#f6c65b" font-family="Inter,Arial" font-size="31" font-weight="900">3</text></g></g>
  <rect x="55" y="270" width="1090" height="354" rx="22" fill="#0b172b" stroke="#29425f"/><text x="82" y="310" class="t" font-size="20" font-weight="850">Người dùng</text><rect x="734" y="287" width="384" height="42" rx="12" fill="#07101f" stroke="#29425f"/><text x="754" y="313" class="m" font-size="13">⌕  Tìm theo email, tên, gói...</text><rect x="82" y="350" width="1036" height="48" rx="10" fill="#102039"/><text x="104" y="380" class="m" font-size="11" font-weight="800">TÀI KHOẢN</text><text x="484" y="380" class="m" font-size="11" font-weight="800">QUYỀN &amp; GÓI</text><text x="700" y="380" class="m" font-size="11" font-weight="800">SỐ DƯ</text><text x="836" y="380" class="m" font-size="11" font-weight="800">TRẠNG THÁI</text><g font-family="Inter,Arial"><text x="104" y="432" class="t" font-size="14" font-weight="800">user01@example.com</text><text x="104" y="452" class="m" font-size="10">#112 · Nguyễn A</text><rect x="484" y="418" width="76" height="28" rx="14" fill="#112f2b"/><text x="522" y="436" text-anchor="middle" fill="#36d99d" font-size="10" font-weight="800">FULL</text><text x="574" y="436" class="m" font-size="11">one_year</text><text x="700" y="438" class="t" font-size="14" font-weight="800">245.000đ</text><rect x="836" y="418" width="72" height="28" rx="14" fill="#112f2b"/><text x="872" y="436" text-anchor="middle" fill="#36d99d" font-size="10" font-weight="800">ACTIVE</text><rect x="1004" y="412" width="94" height="38" rx="11" fill="url(#brand)"/><text x="1051" y="436" text-anchor="middle" class="t" font-size="11" font-weight="850">Quản lý</text><line x1="82" y1="475" x2="1118" y2="475" stroke="#29425f"/><text x="104" y="515" class="t" font-size="14" font-weight="800">user02@example.com</text><text x="104" y="535" class="m" font-size="10">#113 · Trần B</text><rect x="484" y="501" width="86" height="28" rx="14" fill="#30261a"/><text x="527" y="519" text-anchor="middle" fill="#f6c65b" font-size="10" font-weight="800">NO PLAN</text><text x="700" y="519" class="t" font-size="14" font-weight="800">0đ</text><rect x="836" y="501" width="72" height="28" rx="14" fill="#112f2b"/><text x="872" y="519" text-anchor="middle" fill="#36d99d" font-size="10" font-weight="800">ACTIVE</text><rect x="1004" y="495" width="94" height="38" rx="11" fill="#14243d"/><text x="1051" y="519" text-anchor="middle" class="t" font-size="11" font-weight="850">Quản lý</text></g>
  <circle cx="1123" cy="144" r="20" fill="#56d9ff"/><text x="1123" y="151" text-anchor="middle" fill="#06101f" font-family="Inter,Arial" font-weight="900">1</text><path d="M1103 144l-44 22" class="line"/><circle cx="716" cy="308" r="20" fill="#56d9ff"/><text x="716" y="315" text-anchor="middle" fill="#06101f" font-family="Inter,Arial" font-weight="900">2</text><path d="M736 308h26" class="line"/><circle cx="1136" cy="432" r="20" fill="#56d9ff"/><text x="1136" y="439" text-anchor="middle" fill="#06101f" font-family="Inter,Arial" font-weight="900">3</text><path d="M1116 432h-26" class="line"/>
</svg>
