<svg xmlns="http://www.w3.org/2000/svg" viewBox="0 0 1200 675" role="img" aria-labelledby="title desc">
  <title id="title">Quản lý một người dùng</title><desc id="desc">Minh họa email cần xác minh, số dư, gói và bảo mật tài khoản.</desc>
  <defs><linearGradient id="bg" x1="0" y1="0" x2="1" y2="1"><stop stop-color="#020813"/><stop offset="1" stop-color="#07172d"/></linearGradient><linearGradient id="brand"><stop stop-color="#2d69ff"/><stop offset="1" stop-color="#56d9ff"/></linearGradient><filter id="shadow"><feDropShadow dx="0" dy="22" stdDeviation="26" flood-color="#000" flood-opacity=".62"/></filter><style>.t{font-family:Inter,Arial;fill:#f4f8ff}.m{fill:#8fa2bd}.line{stroke:#56d9ff;stroke-width:3;fill:none}</style></defs>
  <rect width="1200" height="675" rx="30" fill="url(#bg)"/><g filter="url(#shadow)"><rect x="100" y="28" width="1000" height="620" rx="28" fill="#0b172b" stroke="#315277"/><text x="138" y="74" class="t" font-size="24" font-weight="850">Quản lý user</text><text x="138" y="101" class="m" font-size="12">#112 · Nguyễn A · tạo lúc 10/07/2026</text><text x="1060" y="76" text-anchor="end" class="m" font-size="22">×</text><g transform="translate(138 126)"><rect width="330" height="72" rx="16" fill="#0a1a30" stroke="#29425f"/><text x="18" y="26" class="m" font-size="10">EMAIL</text><text x="18" y="52" class="t" font-size="15" font-weight="800">user01@example.com</text><rect x="346" width="220" height="72" rx="16" fill="#0a1a30" stroke="#29425f"/><text x="364" y="26" class="m" font-size="10">SỐ DƯ HIỆN TẠI</text><text x="364" y="52" class="t" font-size="17" font-weight="900">245.000đ</text><rect x="582" width="342" height="72" rx="16" fill="#0a1a30" stroke="#29425f"/><text x="600" y="26" class="m" font-size="10">GÓI HIỆN TẠI</text><text x="600" y="52" class="t" font-size="15" font-weight="800">one_year · hết hạn 10/07/2027</text></g>
  <g transform="translate(138 220)"><rect width="452" height="174" rx="18" fill="#0a192d" stroke="#29425f"/><text x="20" y="34" class="t" font-size="17" font-weight="850">Số dư</text><text x="20" y="67" class="m" font-size="11">ĐẶT SỐ DƯ CHÍNH XÁC</text><rect x="20" y="82" width="270" height="44" rx="11" fill="#050c18" stroke="#29425f"/><text x="36" y="110" class="t" font-size="14">245000</text><rect x="302" y="82" width="130" height="44" rx="11" fill="url(#brand)"/><text x="367" y="109" text-anchor="middle" class="t" font-size="12" font-weight="850">Đặt số dư</text><text x="20" y="151" class="m" font-size="11">Cộng/trừ nhanh: +50000 hoặc -50000</text><rect x="472" width="452" height="174" rx="18" fill="#0a192d" stroke="#29425f"/><text x="492" y="34" class="t" font-size="17" font-weight="850">Cấp gói</text><text x="492" y="67" class="m" font-size="11">CHỌN GÓI</text><rect x="492" y="82" width="200" height="44" rx="11" fill="#050c18" stroke="#29425f"/><text x="508" y="110" class="t" font-size="14">Gói 1 năm</text><rect x="704" y="82" width="200" height="44" rx="11" fill="#050c18" stroke="#29425f"/><text x="720" y="110" class="m" font-size="12">Ngày hết hạn</text><rect x="704" y="135" width="92" height="30" rx="10" fill="url(#brand)"/><text x="750" y="155" text-anchor="middle" class="t" font-size="11" font-weight="850">Cấp gói</text><rect x="808" y="135" width="96" height="30" rx="10" fill="#14243d"/><text x="856" y="155" text-anchor="middle" class="t" font-size="11">Gỡ gói</text></g>
  <rect x="138" y="414" width="924" height="196" rx="18" fill="#0a192d" stroke="#29425f"/><text x="160" y="450" class="t" font-size="17" font-weight="850">Bảo mật &amp; quyền</text><text x="160" y="484" class="m" font-size="11">MẬT KHẨU MỚI CHO USER</text><rect x="160" y="500" width="520" height="44" rx="11" fill="#050c18" stroke="#29425f"/><text x="178" y="528" class="m" font-size="13">Nhập mật khẩu mới (từ 6 ký tự)</text><rect x="694" y="500" width="132" height="44" rx="11" fill="#14243d"/><text x="760" y="527" text-anchor="middle" class="t" font-size="12" font-weight="800">Đổi mật khẩu</text><rect x="160" y="560" width="168" height="38" rx="11" fill="#351c25" stroke="#ff6f86" stroke-opacity=".4"/><text x="244" y="584" text-anchor="middle" fill="#ff9bac" font-family="Inter,Arial" font-size="12" font-weight="800">Khóa tài khoản</text><rect x="340" y="560" width="172" height="38" rx="11" fill="#14243d"/><text x="426" y="584" text-anchor="middle" class="t" font-size="12" font-weight="800">Bật / tắt admin</text></g>
  <circle cx="508" cy="110" r="20" fill="#56d9ff"/><text x="508" y="117" text-anchor="middle" fill="#06101f" font-family="Inter,Arial" font-weight="900">1</text><path d="M488 110v38" class="line"/><circle cx="84" cy="318" r="20" fill="#56d9ff"/><text x="84" y="325" text-anchor="middle" fill="#06101f" font-family="Inter,Arial" font-weight="900">2</text><path d="M104 318h34" class="line"/><circle cx="1082" cy="510" r="20" fill="#56d9ff"/><text x="1082" y="517" text-anchor="middle" fill="#06101f" font-family="Inter,Arial" font-weight="900">3</text><path d="M1062 510h-72" class="line"/>
</svg>
