<svg xmlns="http://www.w3.org/2000/svg" viewBox="0 0 1200 675" role="img" aria-labelledby="title desc">
  <title id="title">Giao dịch và job trong admin</title><desc id="desc">Minh họa giao dịch chờ duyệt và danh sách job gần đây.</desc>
  <defs><linearGradient id="bg" x1="0" y1="0" x2="1" y2="1"><stop stop-color="#06101f"/><stop offset="1" stop-color="#0b1e37"/></linearGradient><linearGradient id="brand"><stop stop-color="#2d69ff"/><stop offset="1" stop-color="#56d9ff"/></linearGradient><style>.t{font-family:Inter,Arial;fill:#f4f8ff}.m{fill:#8fa2bd}.line{stroke:#56d9ff;stroke-width:3;fill:none}</style></defs>
  <rect width="1200" height="675" rx="30" fill="url(#bg)"/><text x="58" y="72" fill="#56d9ff" font-family="Inter,Arial" font-size="13" font-weight="900">VẬN HÀNH</text><text x="58" y="115" class="t" font-size="34" font-weight="850">Giao dịch và job gần đây</text>
  <rect x="58" y="154" width="528" height="458" rx="22" fill="#0b172b" stroke="#29425f"/><text x="84" y="195" class="t" font-size="20" font-weight="850">Nạp tiền chờ xử lý</text><rect x="452" y="174" width="102" height="36" rx="11" fill="#14243d"/><text x="503" y="197" text-anchor="middle" class="t" font-size="11" font-weight="800">Tải lại</text><g transform="translate(84 232)"><rect width="450" height="142" rx="16" fill="#0a1a30" stroke="#29425f"/><text x="18" y="31" class="t" font-size="15" font-weight="850">#208 · 100.000đ</text><rect x="350" y="16" width="78" height="28" rx="14" fill="#332a16"/><text x="389" y="34" text-anchor="middle" fill="#f6c65b" font-family="Inter,Arial" font-size="10" font-weight="850">PENDING</text><text x="18" y="62" class="m" font-size="11">User #112 · ATP9K2M7</text><text x="18" y="86" class="m" font-size="11">Ngân hàng MB · 11/07/2026 08:35</text><rect x="218" y="98" width="98" height="34" rx="10" fill="url(#brand)"/><text x="267" y="120" text-anchor="middle" class="t" font-size="11" font-weight="850">Duyệt</text><rect x="326" y="98" width="102" height="34" rx="10" fill="#14243d"/><text x="377" y="120" text-anchor="middle" class="t" font-size="11">Từ chối</text><rect y="158" width="450" height="142" rx="16" fill="#0a1a30" stroke="#29425f"/><text x="18" y="189" class="t" font-size="15" font-weight="850">#207 · 200.000đ</text><rect x="350" y="174" width="78" height="28" rx="14" fill="#112f2b"/><text x="389" y="192" text-anchor="middle" fill="#36d99d" font-family="Inter,Arial" font-size="10" font-weight="850">APPROVED</text><text x="18" y="220" class="m" font-size="11">User #110 · ATP4H8P1</text><text x="18" y="244" class="m" font-size="11">Đã cộng tự động qua webhook</text></g>
  <rect x="614" y="154" width="528" height="458" rx="22" fill="#0b172b" stroke="#29425f"/><text x="640" y="195" class="t" font-size="20" font-weight="850">Job gần đây</text><rect x="1008" y="174" width="102" height="36" rx="11" fill="#14243d"/><text x="1059" y="197" text-anchor="middle" class="t" font-size="11" font-weight="800">Tải lại</text><g transform="translate(640 232)"><rect width="450" height="112" rx="16" fill="#0a1a30" stroke="#29425f"/><text x="18" y="31" class="t" font-size="15" font-weight="850">khoa_hoc_marketing</text><text x="18" y="57" class="m" font-size="11">User #112 · Đang nén ZIP</text><rect x="328" y="18" width="100" height="30" rx="15" fill="#102e45"/><text x="378" y="37" text-anchor="middle" fill="#56d9ff" font-family="Inter,Arial" font-size="10" font-weight="850">RUNNING · 72%</text><rect y="126" width="450" height="112" rx="16" fill="#0a1a30" stroke="#29425f"/><text x="18" y="157" class="t" font-size="15" font-weight="850">tai_lieu_thang_7</text><text x="18" y="183" class="m" font-size="11">User #113 · Không có quyền xem file</text><rect x="338" y="144" width="90" height="30" rx="15" fill="#351c25"/><text x="383" y="163" text-anchor="middle" fill="#ff6f86" font-family="Inter,Arial" font-size="10" font-weight="850">ERROR · 26%</text><rect y="252" width="450" height="112" rx="16" fill="#0a1a30" stroke="#29425f"/><text x="18" y="283" class="t" font-size="15" font-weight="850">drive_backup</text><text x="18" y="309" class="m" font-size="11">User #109 · Đã chuyển 32 file</text><rect x="324" y="270" width="104" height="30" rx="15" fill="#112f2b"/><text x="376" y="289" text-anchor="middle" fill="#36d99d" font-family="Inter,Arial" font-size="10" font-weight="850">COMPLETED</text></g>
  <circle cx="568" cy="330" r="20" fill="#56d9ff"/><text x="568" y="337" text-anchor="middle" fill="#06101f" font-family="Inter,Arial" font-weight="900">1</text><path d="M548 330h-30" class="line"/><circle cx="600" cy="408" r="20" fill="#56d9ff"/><text x="600" y="415" text-anchor="middle" fill="#06101f" font-family="Inter,Arial" font-weight="900">2</text><path d="M620 408h76" class="line"/><circle cx="1122" cy="385" r="20" fill="#56d9ff"/><text x="1122" y="392" text-anchor="middle" fill="#06101f" font-family="Inter,Arial" font-weight="900">3</text><path d="M1102 385h-48" class="line"/>
</svg>
